<?xml version="1.0" encoding="UTF-8"?>
<svg version="1.1" xmlns="http://www.w3.org/2000/svg" width="1477" height="1065">
<path d="M0 0 C487.41 0 974.82 0 1477 0 C1477 351.45 1477 702.9 1477 1065 C989.59 1065 502.18 1065 0 1065 C0 713.55 0 362.1 0 0 Z " fill="#FEFDFE" transform="translate(0,0)"/>
<path d="M0 0 C2.58840371 2.58840371 2.479615 4.09483263 2.9296875 7.703125 C3.08566406 8.91484375 3.24164062 10.1265625 3.40234375 11.375 C3.55832031 12.65375 3.71429687 13.9325 3.875 15.25 C4.1843821 17.69277345 4.49430981 20.13547785 4.8046875 22.578125 C4.89086838 23.26342789 4.97704926 23.94873077 5.06584167 24.65480042 C8.2797597 50.1563036 11.87580932 75.60785952 15.4375 101.0625 C16.3747481 107.76157229 17.3111959 114.46075553 18.24609375 121.16015625 C18.36062267 121.98063068 18.4751516 122.80110512 18.59315109 123.64644241 C20.54530867 137.64084838 22.45203332 151.64114441 24.32945251 165.64576721 C24.52173359 167.07822543 24.71407914 168.510675 24.90649414 169.94311523 C25.04395066 170.96766925 25.04395066 170.96766925 25.18418407 172.01292133 C25.94870984 177.68346508 26.76487733 183.34542148 27.59983826 189.0059967 C28.60825434 196.55094851 28.95041852 201.37296025 24.4375 207.66796875 C16.74245599 220.15150483 13.99765639 235.89466133 17.125 250.125 C21.04487258 263.91714425 29.69171876 275.26937238 42.04296875 282.59375 C53.8330307 288.20064868 65.46548829 288.38361947 77.59521484 284.19458008 C82.85917878 282.22916082 86.97430537 279.89613204 91 276 C91.61230469 275.42636719 92.22460938 274.85273438 92.85546875 274.26171875 C102.43003207 264.40134757 104.02044823 252.24087566 104.5625 239.125 C104.62727539 237.66320312 104.62727539 237.66320312 104.69335938 236.171875 C104.79882274 233.78137198 104.90094175 231.39077556 105 229 C104.34 229 103.68 229 103 229 C102.79246094 228.12601563 102.58492187 227.25203125 102.37109375 226.3515625 C99.92627467 216.59274493 96.60276753 207.40525445 92.83178711 198.08642578 C91.73520795 195.33580485 90.69863108 192.56459794 89.66772461 189.78881836 C89.11657202 188.31229366 88.54704565 186.84264136 87.97265625 185.375 C85.89564311 179.95515455 84.24285159 174.49381563 82.8125 168.875 C82.64564697 168.23046875 82.47879395 167.5859375 82.30688477 166.921875 C76.96915832 145.23067202 78.4558791 121.91712412 89.78515625 102.484375 C94.46102233 94.89782923 100.38689037 87.9679282 107 82 C107.66 82 108.32 82 109 82 C107.50581719 85.9795562 105.6253596 89.62760145 103.625 93.375 C93.78592788 112.72782214 94.02414027 132.04823892 100.5 152.375 C105.7316454 167.9697068 113.56614719 182.39484874 121.51782227 196.73779297 C125.07396203 203.18980265 128.39682512 209.72283669 131.5625 216.375 C131.96791016 217.22449219 132.37332031 218.07398438 132.79101562 218.94921875 C136.56440119 226.98287835 139.38215813 234.44297123 140.6875 243.25 C140.8127002 244.08700439 140.93790039 244.92400879 141.06689453 245.78637695 C143.9093659 265.82483325 140.31605579 283.17262585 129.015625 299.9453125 C121.95430453 309.18151968 113.63176423 316.20207563 103 321 C102.34 321 101.68 321 101 321 C101 321.66 101 322.32 101 323 C79.8929236 329.82445888 58.00482449 331.3193197 37.75366211 321.00390625 C33.28667631 318.62644872 28.97404802 316.15759756 25 313 C25.2165625 313.82242187 25.433125 314.64484375 25.65625 315.4921875 C29.97691951 332.81487175 29.97691951 332.81487175 26 340.5 C23.27166274 344.90610787 20.01128162 348.88137703 16.671875 352.8359375 C13.32582345 357.16704161 13.5418483 361.76519264 14 367 C15.08774757 372.17141006 16.92831945 375.68232624 21.26171875 378.9296875 C23.12173759 380.07495753 25.01255574 380.97057986 27 381.875 C31.98358696 384.20896395 35.54368679 388.08737359 38 393 C38.86531845 400.6345185 38.76900075 406.73721941 33.9765625 412.94921875 C31.03737649 415.99876946 27.78453686 418.53215993 24.41015625 421.08203125 C20.2501848 424.39247855 16.69565206 427.91304382 15 433 C14.8509202 435.76371005 14.76890171 438.4856242 14.75 441.25 C14.729375 441.98863281 14.70875 442.72726562 14.6875 443.48828125 C14.63761488 450.55949716 16.89856325 455.79189233 21.0625 461.5 C25.93084742 468.68775859 27.42108099 476.40940513 26 485 C23.33753237 490.7480123 19.73406581 495.77455283 15 500 C14.34 500 13.68 500 13 500 C13.00276538 500.61916039 13.00553076 501.23832077 13.00837994 501.87624359 C13.0749229 517.01168488 13.12441727 532.14708061 13.15543652 547.28263092 C13.17083975 554.60237413 13.19180237 561.92201911 13.22631836 569.24169922 C13.25642299 575.62897709 13.27562241 582.01618374 13.28226548 588.4035306 C13.28614255 591.77889373 13.29674099 595.15389339 13.31719017 598.52922058 C13.39797798 612.42632555 13.20687675 625.44781808 10 639 C9.28061308 643.40688639 8.67016635 647.82645035 8.0625 652.25 C7.72537114 654.65626552 7.38812784 657.062515 7.05078125 659.46875 C6.8801416 660.69464844 6.70950195 661.92054688 6.53369141 663.18359375 C5.62131674 669.70794908 4.684299 676.22875212 3.75 682.75 C3.41134934 685.11977609 3.07279732 687.48956629 2.734375 689.859375 C2.48958333 691.57291667 2.24479167 693.28645833 2 695 C1.01 695 0.02 695 -1 695 C-2.09404597 688.78420097 -3.17778013 682.56670949 -4.25317383 676.34765625 C-4.61805826 674.24531032 -4.98545406 672.14339826 -5.35571289 670.04199219 C-9.64606531 645.66951269 -12.45274983 621.86605338 -12.257864 597.08683395 C-12.22964728 593.15908937 -12.22458307 589.23167481 -12.22737122 585.30386353 C-12.23162474 574.15972715 -12.20774321 563.01597522 -12.1340332 551.87207031 C-12.08886384 545.00133548 -12.085748 538.13148496 -12.10561562 531.26063919 C-12.10551831 528.66033305 -12.09071813 526.05998271 -12.06065941 523.45985031 C-12.01982735 519.83989312 -12.02822064 516.22309229 -12.04760742 512.60302734 C-12.02348282 511.54119736 -11.99935822 510.47936737 -11.97450256 509.38536072 C-12.06202097 503.62934446 -12.73325453 500.6494879 -16.90718079 496.54043579 C-17.96562179 495.65769454 -17.96562179 495.65769454 -19.04544544 494.75712013 C-23.83896318 490.44780756 -25.75863481 484.0774062 -26.25 477.8125 C-25.70835772 469.55245526 -22.58299681 463.88987967 -17.62109375 457.359375 C-12.89801267 450.48530037 -13.23333887 443.01284532 -14 435 C-16.27667233 426.35557916 -22.06140774 422.09820782 -29 417 C-34.8213477 411.67408615 -37.53126626 407.46068803 -38.046875 399.55078125 C-37.95042487 394.30228656 -36.63719158 390.81647082 -33.109375 386.90234375 C-28.71948009 382.79641057 -24.19209836 379.90482633 -18.8828125 377.1484375 C-15.65497327 375.1795895 -14.48299947 372.64425351 -13.44921875 369.125 C-12.97614924 366.88717555 -12.83230902 364.84846124 -12.8125 362.5625 C-12.79832031 361.82128906 -12.78414062 361.08007812 -12.76953125 360.31640625 C-13.30844429 354.89987351 -15.93574899 351.63850116 -19.4375 347.625 C-24.34369568 341.73283252 -27.54908683 337.33363479 -27.234375 329.32421875 C-25.98947368 316.97894737 -25.98947368 316.97894737 -24 313 C-24.85980469 313.51949219 -25.71960938 314.03898437 -26.60546875 314.57421875 C-46.13502013 326.17554643 -66.88580469 331.97254041 -89.5 326.4375 C-108.91117703 321.10632947 -122.43919343 308.51400256 -133 292 C-133.79470703 290.78957031 -133.79470703 290.78957031 -134.60546875 289.5546875 C-143.90077043 272.52631971 -142.92598369 251.21608663 -138 233 C-133.50169034 218.8407637 -125.25781331 205.12052614 -117.5 192.5 C-101.09804835 165.78729336 -88.67627508 138.91785622 -95.48632812 107.13525391 C-97.52199897 98.67328755 -100.8726595 90.64322314 -105 83 C-94.67551343 87.45414797 -87.62675826 100.73933265 -83.4921875 110.59375 C-82.24107176 114.03993706 -81.10630844 117.50507108 -80 121 C-79.52046875 122.24136719 -79.52046875 122.24136719 -79.03125 123.5078125 C-69.11680201 150.5889436 -85.19065664 184.24957346 -95 209 C-101.45477706 225.3849618 -107.36586355 242.72967918 -100.4375 260 C-95.55339685 271.15787407 -88.85091295 278.32823446 -78 284 C-65.76099977 288.61090021 -55.03493612 287.77553362 -43 283 C-29.40636231 276.43037287 -22.10929251 266.08061436 -16.76171875 252.2265625 C-12.89842545 240.93385902 -13.72160879 227.59448496 -18.5625 216.8125 C-21.17115347 211.70861278 -23.81887183 206.77169225 -27 202 C-28.32886722 191.57641131 -25.93880436 180.50839067 -24.5 170.1875 C-24.23281653 168.22849136 -23.9660632 166.26942402 -23.69970703 164.31030273 C-21.19626279 146.01014178 -18.51474418 127.73496033 -15.83325195 109.46020508 C-13.55974611 93.95393001 -11.41214276 78.43904769 -9.38378906 62.89892578 C-8.47000658 55.99672909 -7.46108706 49.10807767 -6.46240234 42.21777344 C-5.9948138 38.9639102 -5.53385739 35.70916844 -5.07463074 32.45411682 C-4.62271566 29.25126638 -4.16915036 26.04865035 -3.71554565 22.84603882 C-3.48985238 21.24980344 -3.26484809 19.65347048 -3.04055786 18.05703735 C-2.72430882 15.8072743 -2.40539781 13.55790274 -2.0859375 11.30859375 C-1.94391655 10.29123642 -1.94391655 10.29123642 -1.79902649 9.25332642 C-1.35134581 6.11839044 -0.85456954 3.05182714 0 0 Z " fill="#040404" transform="translate(732,112)"/>
<path d="M0 0 C7.01502843 2.95039227 12.17064214 10.10344022 15 17 C14.01 17 13.02 17 12 17 C12 16.34 12 15.68 12 15 C9.66924071 15.95865509 9.66924071 15.95865509 8 19 C7.67386719 18.13117188 7.34773437 17.26234375 7.01171875 16.3671875 C6.35623047 14.63855469 6.35623047 14.63855469 5.6875 12.875 C5.25824219 11.73804688 4.82898438 10.60109375 4.38671875 9.4296875 C3.07627928 6.18865692 1.60780709 3.10245474 0 0 Z " fill="#141414" transform="translate(627,195)"/>
<path d="M0 0 C0.66 0 1.32 0 2 0 C2.33 1.98 2.66 3.96 3 6 C3.66 6 4.32 6 5 6 C5.33 5.34 5.66 4.68 6 4 C5.67 8.29 5.34 12.58 5 17 C4.01 17 3.02 17 2 17 C1.66151348 15.10507994 1.32943089 13.20901534 1 11.3125 C0.814375 10.25675781 0.62875 9.20101562 0.4375 8.11328125 C0.04931926 5.35095938 -0.08259976 2.78257957 0 0 Z " fill="#222222" transform="translate(729,790)"/>
<path d="M0 0 C0.99 0 1.98 0 3 0 C3.99 1.98 4.98 3.96 6 6 C5.01 6 4.02 6 3 6 C3 5.34 3 4.68 3 4 C0.66924071 4.95865509 0.66924071 4.95865509 -1 8 C-1.33 6.35 -1.66 4.7 -2 3 C-1.34 3 -0.68 3 0 3 C0 2.01 0 1.02 0 0 Z " fill="#1A1A1A" transform="translate(636,206)"/>
<path d="M0 0 C3.04951395 1.52475697 5.36399506 2.92885326 8 5 C6.35 4.67 4.7 4.34 3 4 C2.67 5.65 2.34 7.3 2 9 C1.67 9 1.34 9 1 9 C0.67 6.03 0.34 3.06 0 0 Z " fill="#D7D7D8" transform="translate(757,425)"/>
<path d="M0 0 C-0.97261622 3.27152729 -1.65767587 4.74545129 -4.4375 6.8125 C-7 8 -7 8 -10 8 C-8.71451591 6.66070495 -7.42141845 5.32871357 -6.125 4 C-5.04605469 2.88625 -5.04605469 2.88625 -3.9453125 1.75 C-2 0 -2 0 0 0 Z " fill="#393939" transform="translate(841,194)"/>
<path d="M0 0 C2 2 2 2 2.125 5.125 C2.08375 6.07375 2.0425 7.0225 2 8 C1.34 8 0.68 8 0 8 C-0.33 9.32 -0.66 10.64 -1 12 C-1.14285714 3.42857143 -1.14285714 3.42857143 0 0 Z " fill="#272828" transform="translate(732,112)"/>
<path d="M0 0 C0.33 0.66 0.66 1.32 1 2 C0.07456291 3.34173403 -0.86577405 4.67320159 -1.8125 6 C-2.33457031 6.7425 -2.85664062 7.485 -3.39453125 8.25 C-3.92433594 8.8275 -4.45414063 9.405 -5 10 C-5.99 10 -6.98 10 -8 10 C-5.36 6.7 -2.72 3.4 0 0 Z " fill="#D1D1D1" transform="translate(756,454)"/>
<path d="M0 0 C0.66 0.66 1.32 1.32 2 2 C0.7260411 4.03833424 -0.61061923 6.03852126 -2 8 C-2.66 8 -3.32 8 -4 8 C-2.87548273 5.0280615 -1.77706209 2.66559313 0 0 Z " fill="#323232" transform="translate(712,573)"/>
<path d="M0 0 C0 0.66 0 1.32 0 2 C-1.96147874 3.38938077 -3.96166576 4.7260411 -6 6 C-6.66 5.34 -7.32 4.68 -8 4 C-2.25 0 -2.25 0 0 0 Z " fill="#CFCECE" transform="translate(708,425)"/>
</svg>
